<svg width="264" height="39" viewBox="0 0 264 39" fill="none" xmlns="http://www.w3.org/2000/svg">
    <path 
        d="M21.7793 26.208H29.0791C28.9326 28.6006 28.2734 30.7246 27.1016 32.5801C25.946 34.4355 24.3265 35.8841 22.2432 36.9258C20.1761 37.9674 17.6859 38.4883 14.7725 38.4883C12.4938 38.4883 10.4512 38.0977 8.64453 37.3164C6.83789 36.5189 5.29167 35.3796 4.00586 33.8984C2.73633 32.4173 1.7679 30.627 1.10059 28.5273C0.433268 26.4277 0.0996094 24.0758 0.0996094 21.4717V19.0059C0.0996094 16.4017 0.441406 14.0498 1.125 11.9502C1.82487 9.83431 2.81771 8.03581 4.10352 6.55469C5.4056 5.07357 6.95996 3.93424 8.7666 3.13672C10.5732 2.33919 12.5915 1.94043 14.8213 1.94043C17.7835 1.94043 20.2819 2.47754 22.3164 3.55176C24.3672 4.62598 25.9541 6.1071 27.0771 7.99512C28.2165 9.88314 28.9001 12.0316 29.1279 14.4404H21.8037C21.7223 13.0081 21.4375 11.7956 20.9492 10.8027C20.4609 9.79362 19.7204 9.03678 18.7275 8.53223C17.751 8.01139 16.4489 7.75098 14.8213 7.75098C13.6006 7.75098 12.5345 7.97884 11.623 8.43457C10.7116 8.8903 9.94661 9.58203 9.32812 10.5098C8.70964 11.4375 8.24577 12.6094 7.93652 14.0254C7.64355 15.4251 7.49707 17.069 7.49707 18.957V21.4717C7.49707 23.3109 7.63542 24.9303 7.91211 26.3301C8.1888 27.7135 8.61198 28.8854 9.18164 29.8457C9.76758 30.7897 10.5163 31.5059 11.4277 31.9941C12.3555 32.4661 13.4704 32.7021 14.7725 32.7021C16.3024 32.7021 17.5638 32.458 18.5566 31.9697C19.5495 31.4814 20.3063 30.7572 20.8271 29.7969C21.3643 28.8366 21.6816 27.6403 21.7793 26.208ZM47.707 32.043V20.2754C47.707 19.429 47.5687 18.7048 47.292 18.1025C47.0153 17.484 46.584 17.0039 45.998 16.6621C45.4284 16.3203 44.6878 16.1494 43.7764 16.1494C42.9951 16.1494 42.3197 16.2878 41.75 16.5645C41.1803 16.8249 40.7409 17.2074 40.4316 17.7119C40.1224 18.2002 39.9678 18.778 39.9678 19.4453H32.9365C32.9365 18.3223 33.1969 17.2562 33.7178 16.2471C34.2386 15.238 34.9954 14.3509 35.9883 13.5859C36.9811 12.8047 38.1611 12.1943 39.5283 11.7549C40.9118 11.3154 42.458 11.0957 44.167 11.0957C46.2178 11.0957 48.0407 11.4375 49.6357 12.1211C51.2308 12.8047 52.484 13.8301 53.3955 15.1973C54.3232 16.5645 54.7871 18.2734 54.7871 20.3242V31.6279C54.7871 33.0765 54.8766 34.2646 55.0557 35.1924C55.2347 36.1038 55.4951 36.9014 55.8369 37.585V38H48.7324C48.3906 37.2839 48.1302 36.3887 47.9512 35.3145C47.7884 34.224 47.707 33.1335 47.707 32.043ZM48.6348 21.9111L48.6836 25.8906H44.7529C43.8252 25.8906 43.0195 25.9964 42.3359 26.208C41.6523 26.4196 41.0908 26.7207 40.6514 27.1113C40.2119 27.4857 39.8864 27.9251 39.6748 28.4297C39.4795 28.9342 39.3818 29.4876 39.3818 30.0898C39.3818 30.6921 39.5202 31.2373 39.7969 31.7256C40.0736 32.1976 40.4723 32.5719 40.9932 32.8486C41.514 33.109 42.1243 33.2393 42.8242 33.2393C43.8822 33.2393 44.8018 33.0277 45.583 32.6045C46.3643 32.1813 46.9665 31.6605 47.3896 31.042C47.8291 30.4235 48.057 29.8376 48.0732 29.2842L49.9287 32.2627C49.6683 32.93 49.3102 33.6217 48.8545 34.3379C48.415 35.054 47.8535 35.7295 47.1699 36.3643C46.4863 36.9827 45.6644 37.4954 44.7041 37.9023C43.7438 38.293 42.6045 38.4883 41.2861 38.4883C39.6097 38.4883 38.0879 38.1546 36.7207 37.4873C35.3698 36.8037 34.2956 35.8678 33.498 34.6797C32.7168 33.4753 32.3262 32.1081 32.3262 30.5781C32.3262 29.1947 32.5866 27.9658 33.1074 26.8916C33.6283 25.8174 34.3932 24.9141 35.4023 24.1816C36.4277 23.4329 37.7054 22.8714 39.2354 22.4971C40.7653 22.1064 42.5394 21.9111 44.5576 21.9111H48.6348ZM67.6289 0.5V38H60.5732V0.5H67.6289ZM84.3525 32.9951C85.2152 32.9951 85.9801 32.8324 86.6475 32.5068C87.3148 32.165 87.8356 31.693 88.21 31.0908C88.6006 30.4723 88.804 29.748 88.8203 28.918H95.4365C95.4202 30.7734 94.9238 32.4255 93.9473 33.874C92.9707 35.3063 91.6605 36.4375 90.0166 37.2676C88.3727 38.0814 86.5335 38.4883 84.499 38.4883C82.4482 38.4883 80.6579 38.1465 79.1279 37.4629C77.6143 36.7793 76.3529 35.8353 75.3438 34.6309C74.3346 33.4102 73.5778 31.9941 73.0732 30.3828C72.5687 28.7552 72.3164 27.0137 72.3164 25.1582V24.4502C72.3164 22.5785 72.5687 20.8369 73.0732 19.2256C73.5778 17.598 74.3346 16.182 75.3438 14.9775C76.3529 13.7568 77.6143 12.8047 79.1279 12.1211C80.6416 11.4375 82.4157 11.0957 84.4502 11.0957C86.6149 11.0957 88.5111 11.5107 90.1387 12.3408C91.7826 13.1709 93.0684 14.359 93.9961 15.9053C94.9401 17.4352 95.4202 19.25 95.4365 21.3496H88.8203C88.804 20.4707 88.6169 19.6732 88.2588 18.957C87.917 18.2409 87.4124 17.6712 86.7451 17.248C86.0941 16.8086 85.2884 16.5889 84.3281 16.5889C83.3027 16.5889 82.4645 16.8086 81.8135 17.248C81.1624 17.6712 80.6579 18.2572 80.2998 19.0059C79.9417 19.7383 79.6895 20.5765 79.543 21.5205C79.4128 22.4482 79.3477 23.4248 79.3477 24.4502V25.1582C79.3477 26.1836 79.4128 27.1683 79.543 28.1123C79.6732 29.0563 79.9173 29.8945 80.2754 30.627C80.6497 31.3594 81.1624 31.9372 81.8135 32.3604C82.4645 32.7835 83.3109 32.9951 84.3525 32.9951ZM115.139 31.6768V11.584H122.17V38H115.554L115.139 31.6768ZM115.92 26.2568L117.995 26.208C117.995 27.9658 117.792 29.6016 117.385 31.1152C116.978 32.6126 116.368 33.9147 115.554 35.0215C114.74 36.112 113.715 36.9665 112.478 37.585C111.241 38.1872 109.784 38.4883 108.107 38.4883C106.822 38.4883 105.633 38.3092 104.543 37.9512C103.469 37.5768 102.541 36.999 101.76 36.2178C100.995 35.4202 100.393 34.403 99.9531 33.166C99.5299 31.9128 99.3184 30.4072 99.3184 28.6494V11.584H106.35V28.6982C106.35 29.4795 106.439 30.1387 106.618 30.6758C106.813 31.2129 107.082 31.6523 107.424 31.9941C107.766 32.3359 108.164 32.5801 108.62 32.7266C109.092 32.873 109.613 32.9463 110.183 32.9463C111.631 32.9463 112.771 32.6533 113.601 32.0674C114.447 31.4814 115.041 30.6839 115.383 29.6748C115.741 28.6494 115.92 27.5101 115.92 26.2568ZM134.963 0.5V38H127.907V0.5H134.963ZM155.031 32.043V20.2754C155.031 19.429 154.893 18.7048 154.616 18.1025C154.34 17.484 153.908 17.0039 153.322 16.6621C152.753 16.3203 152.012 16.1494 151.101 16.1494C150.319 16.1494 149.644 16.2878 149.074 16.5645C148.505 16.8249 148.065 17.2074 147.756 17.7119C147.447 18.2002 147.292 18.778 147.292 19.4453H140.261C140.261 18.3223 140.521 17.2562 141.042 16.2471C141.563 15.238 142.32 14.3509 143.312 13.5859C144.305 12.8047 145.485 12.1943 146.853 11.7549C148.236 11.3154 149.782 11.0957 151.491 11.0957C153.542 11.0957 155.365 11.4375 156.96 12.1211C158.555 12.8047 159.808 13.8301 160.72 15.1973C161.647 16.5645 162.111 18.2734 162.111 20.3242V31.6279C162.111 33.0765 162.201 34.2646 162.38 35.1924C162.559 36.1038 162.819 36.9014 163.161 37.585V38H156.057C155.715 37.2839 155.454 36.3887 155.275 35.3145C155.113 34.224 155.031 33.1335 155.031 32.043ZM155.959 21.9111L156.008 25.8906H152.077C151.149 25.8906 150.344 25.9964 149.66 26.208C148.977 26.4196 148.415 26.7207 147.976 27.1113C147.536 27.4857 147.211 27.9251 146.999 28.4297C146.804 28.9342 146.706 29.4876 146.706 30.0898C146.706 30.6921 146.844 31.2373 147.121 31.7256C147.398 32.1976 147.797 32.5719 148.317 32.8486C148.838 33.109 149.449 33.2393 150.148 33.2393C151.206 33.2393 152.126 33.0277 152.907 32.6045C153.688 32.1813 154.291 31.6605 154.714 31.042C155.153 30.4235 155.381 29.8376 155.397 29.2842L157.253 32.2627C156.993 32.93 156.634 33.6217 156.179 34.3379C155.739 35.054 155.178 35.7295 154.494 36.3643C153.811 36.9827 152.989 37.4954 152.028 37.9023C151.068 38.293 149.929 38.4883 148.61 38.4883C146.934 38.4883 145.412 38.1546 144.045 37.4873C142.694 36.8037 141.62 35.8678 140.822 34.6797C140.041 33.4753 139.65 32.1081 139.65 30.5781C139.65 29.1947 139.911 27.9658 140.432 26.8916C140.952 25.8174 141.717 24.9141 142.727 24.1816C143.752 23.4329 145.03 22.8714 146.56 22.4971C148.09 22.1064 149.864 21.9111 151.882 21.9111H155.959ZM183.132 32.2383V0.5H190.212V38H183.84L183.132 32.2383ZM166.433 25.1094V24.5967C166.433 22.5785 166.66 20.7474 167.116 19.1035C167.572 17.4434 168.239 16.0192 169.118 14.8311C169.997 13.6429 171.079 12.7233 172.365 12.0723C173.651 11.4212 175.116 11.0957 176.76 11.0957C178.306 11.0957 179.657 11.4212 180.812 12.0723C181.984 12.7233 182.977 13.651 183.791 14.8555C184.621 16.0436 185.288 17.4515 185.793 19.0791C186.298 20.6904 186.664 22.4564 186.892 24.377V25.5C186.664 27.3392 186.298 29.0482 185.793 30.627C185.288 32.2057 184.621 33.5892 183.791 34.7773C182.977 35.9492 181.984 36.8607 180.812 37.5117C179.641 38.1628 178.273 38.4883 176.711 38.4883C175.067 38.4883 173.602 38.1546 172.316 37.4873C171.047 36.82 169.973 35.8841 169.094 34.6797C168.231 33.4753 167.572 32.0592 167.116 30.4316C166.66 28.804 166.433 27.0299 166.433 25.1094ZM173.464 24.5967V25.1094C173.464 26.1999 173.545 27.2171 173.708 28.1611C173.887 29.1051 174.172 29.9434 174.562 30.6758C174.969 31.3919 175.49 31.9535 176.125 32.3604C176.776 32.751 177.565 32.9463 178.493 32.9463C179.698 32.9463 180.69 32.6777 181.472 32.1406C182.253 31.5872 182.847 30.8304 183.254 29.8701C183.677 28.9098 183.921 27.8031 183.986 26.5498V23.3516C183.938 22.3262 183.791 21.4066 183.547 20.5928C183.319 19.7627 182.977 19.0547 182.521 18.4688C182.082 17.8828 181.529 17.4271 180.861 17.1016C180.21 16.776 179.437 16.6133 178.542 16.6133C177.631 16.6133 176.849 16.8249 176.198 17.248C175.547 17.6549 175.018 18.2165 174.611 18.9326C174.221 19.6488 173.928 20.4951 173.732 21.4717C173.553 22.432 173.464 23.4736 173.464 24.5967ZM194.582 25.0605V24.5479C194.582 22.611 194.859 20.8288 195.412 19.2012C195.965 17.5573 196.771 16.1331 197.829 14.9287C198.887 13.7243 200.189 12.7884 201.735 12.1211C203.282 11.4375 205.056 11.0957 207.058 11.0957C209.06 11.0957 210.842 11.4375 212.404 12.1211C213.967 12.7884 215.277 13.7243 216.335 14.9287C217.409 16.1331 218.223 17.5573 218.776 19.2012C219.33 20.8288 219.606 22.611 219.606 24.5479V25.0605C219.606 26.9811 219.33 28.7633 218.776 30.4072C218.223 32.0348 217.409 33.459 216.335 34.6797C215.277 35.8841 213.975 36.82 212.429 37.4873C210.882 38.1546 209.108 38.4883 207.106 38.4883C205.104 38.4883 203.322 38.1546 201.76 37.4873C200.214 36.82 198.903 35.8841 197.829 34.6797C196.771 33.459 195.965 32.0348 195.412 30.4072C194.859 28.7633 194.582 26.9811 194.582 25.0605ZM201.613 24.5479V25.0605C201.613 26.1673 201.711 27.2008 201.906 28.1611C202.102 29.1214 202.411 29.9678 202.834 30.7002C203.273 31.4163 203.843 31.9779 204.543 32.3848C205.243 32.7917 206.097 32.9951 207.106 32.9951C208.083 32.9951 208.921 32.7917 209.621 32.3848C210.321 31.9779 210.882 31.4163 211.306 30.7002C211.729 29.9678 212.038 29.1214 212.233 28.1611C212.445 27.2008 212.551 26.1673 212.551 25.0605V24.5479C212.551 23.4736 212.445 22.4645 212.233 21.5205C212.038 20.5602 211.721 19.7139 211.281 18.9814C210.858 18.2327 210.297 17.6468 209.597 17.2236C208.897 16.8005 208.05 16.5889 207.058 16.5889C206.065 16.5889 205.218 16.8005 204.519 17.2236C203.835 17.6468 203.273 18.2327 202.834 18.9814C202.411 19.7139 202.102 20.5602 201.906 21.5205C201.711 22.4645 201.613 23.4736 201.613 24.5479ZM230.959 17.3457V38H223.928V11.584H230.544L230.959 17.3457ZM238.918 11.4131L238.796 17.9316C238.454 17.8828 238.039 17.8421 237.551 17.8096C237.079 17.7607 236.647 17.7363 236.257 17.7363C235.264 17.7363 234.401 17.8665 233.669 18.127C232.953 18.3711 232.351 18.7373 231.862 19.2256C231.39 19.7139 231.032 20.3079 230.788 21.0078C230.56 21.7077 230.43 22.5052 230.397 23.4004L228.981 22.9609C228.981 21.252 229.152 19.6813 229.494 18.249C229.836 16.8005 230.332 15.5391 230.983 14.4648C231.651 13.3906 232.465 12.5605 233.425 11.9746C234.385 11.3887 235.484 11.0957 236.721 11.0957C237.111 11.0957 237.51 11.1283 237.917 11.1934C238.324 11.2422 238.658 11.3154 238.918 11.4131ZM255.666 32.043V20.2754C255.666 19.429 255.528 18.7048 255.251 18.1025C254.974 17.484 254.543 17.0039 253.957 16.6621C253.387 16.3203 252.647 16.1494 251.735 16.1494C250.954 16.1494 250.279 16.2878 249.709 16.5645C249.139 16.8249 248.7 17.2074 248.391 17.7119C248.081 18.2002 247.927 18.778 247.927 19.4453H240.896C240.896 18.3223 241.156 17.2562 241.677 16.2471C242.198 15.238 242.954 14.3509 243.947 13.5859C244.94 12.8047 246.12 12.1943 247.487 11.7549C248.871 11.3154 250.417 11.0957 252.126 11.0957C254.177 11.0957 256 11.4375 257.595 12.1211C259.19 12.8047 260.443 13.8301 261.354 15.1973C262.282 16.5645 262.746 18.2734 262.746 20.3242V31.6279C262.746 33.0765 262.836 34.2646 263.015 35.1924C263.194 36.1038 263.454 36.9014 263.796 37.585V38H256.691C256.35 37.2839 256.089 36.3887 255.91 35.3145C255.747 34.224 255.666 33.1335 255.666 32.043ZM256.594 21.9111L256.643 25.8906H252.712C251.784 25.8906 250.979 25.9964 250.295 26.208C249.611 26.4196 249.05 26.7207 248.61 27.1113C248.171 27.4857 247.845 27.9251 247.634 28.4297C247.438 28.9342 247.341 29.4876 247.341 30.0898C247.341 30.6921 247.479 31.2373 247.756 31.7256C248.033 32.1976 248.431 32.5719 248.952 32.8486C249.473 33.109 250.083 33.2393 250.783 33.2393C251.841 33.2393 252.761 33.0277 253.542 32.6045C254.323 32.1813 254.925 31.6605 255.349 31.042C255.788 30.4235 256.016 29.8376 256.032 29.2842L257.888 32.2627C257.627 32.93 257.269 33.6217 256.813 34.3379C256.374 35.054 255.812 35.7295 255.129 36.3643C254.445 36.9827 253.623 37.4954 252.663 37.9023C251.703 38.293 250.563 38.4883 249.245 38.4883C247.569 38.4883 246.047 38.1546 244.68 37.4873C243.329 36.8037 242.255 35.8678 241.457 34.6797C240.676 33.4753 240.285 32.1081 240.285 30.5781C240.285 29.1947 240.546 27.9658 241.066 26.8916C241.587 25.8174 242.352 24.9141 243.361 24.1816C244.387 23.4329 245.664 22.8714 247.194 22.4971C248.724 22.1064 250.498 21.9111 252.517 21.9111H256.594Z" 
        fill="#F3F4F6"
    />
</svg>
